<?xml version="1.0" standalone="no"?>
<!DOCTYPE svg PUBLIC "-//W3C//DTD SVG 20010904//EN"
 "http://www.w3.org/TR/2001/REC-SVG-20010904/DTD/svg10.dtd">
<svg version="1.0" xmlns="http://www.w3.org/2000/svg"
 width="180.000000pt" height="180.000000pt" viewBox="0 0 180.000000 180.000000"
 preserveAspectRatio="xMidYMid meet">
<metadata>
Created by potrace 1.14, written by Peter Selinger 2001-2017
</metadata>
<g transform="translate(0.000000,180.000000) scale(0.100000,-0.100000)"
fill="#000000" stroke="none">
<path d="M883 1658 c-6 -7 -103 -174 -218 -370 l-208 -358 -113 0 -114 0 -27
-42 c-47 -76 -84 -148 -76 -149 4 0 54 0 111 0 56 0 102 -2 102 -4 0 -3 -72
-129 -160 -279 -88 -151 -162 -281 -165 -288 -5 -12 127 -15 890 -16 718 -2
895 0 889 10 -46 75 -116 178 -122 179 -4 0 -301 1 -659 2 -649 1 -673 2 -644
32 5 6 19 28 31 50 25 44 293 506 340 585 39 67 176 306 179 314 2 6 7 13 11
16 3 3 23 36 44 73 l38 69 -57 94 c-32 52 -58 94 -60 94 -1 0 -7 -6 -12 -12z"/>
<path d="M1010 1243 c-34 -59 -71 -124 -82 -143 -11 -19 -24 -39 -28 -45 -4
-5 -19 -30 -32 -55 -51 -91 -271 -466 -289 -492 -10 -15 -19 -30 -19 -33 0 -3
234 -5 520 -5 286 0 520 2 520 5 0 3 -11 23 -25 45 -14 22 -25 42 -25 45 0 4
-13 26 -30 50 -16 24 -30 46 -30 49 0 4 -10 22 -22 41 l-23 35 -107 0 c-60 0
-108 -3 -108 -7 0 -5 7 -17 15 -27 8 -11 15 -22 15 -25 0 -3 -75 -6 -168 -6
-141 1 -167 3 -164 15 5 23 143 260 151 260 4 0 12 -5 17 -10 7 -7 55 -10 122
-8 l110 3 -118 199 c-65 109 -122 202 -128 208 -5 5 -33 -32 -72 -99z"/>
</g>
</svg>
